<?xml version="1.0" standalone="no"?>
<!DOCTYPE svg PUBLIC "-//W3C//DTD SVG 20010904//EN"
 "http://www.w3.org/TR/2001/REC-SVG-20010904/DTD/svg10.dtd">
<svg version="1.0" xmlns="http://www.w3.org/2000/svg"
 width="2560.000000pt" height="2560.000000pt" viewBox="0 0 2560.000000 2560.000000"
 preserveAspectRatio="xMidYMid meet">

<g transform="translate(0.000000,2560.000000) scale(0.100000,-0.100000)"
fill="#000000" stroke="none">
<path d="M5033 22776 c-18 -18 -33 -41 -33 -51 0 -10 -9 -32 -19 -49 -19 -30
-19 -41 -8 -281 12 -273 14 -1641 2 -1902 -6 -141 -5 -172 13 -250 15 -70 19
-113 15 -213 -2 -69 -4 -357 -3 -640 3 -1747 4 -6721 1 -6954 -3 -178 -9 -309
-18 -362 -14 -79 -13 -86 6 -129 11 -25 26 -47 33 -49 7 -3 47 -15 88 -28 l75
-23 2495 -3 c3169 -4 2967 -5 3032 14 29 8 90 22 135 30 63 13 84 21 88 35 4
11 10 19 15 19 22 0 40 34 40 78 0 30 7 58 20 77 19 28 20 47 20 350 0 176 -5
338 -10 360 -6 22 -14 69 -20 105 -6 41 -10 1144 -12 3010 -1 1620 -4 2990 -7
3045 -5 73 -9 95 -15 80 -16 -34 -19 -5961 -4 -6290 17 -345 13 -619 -9 -698
-19 -70 -57 -107 -111 -108 -362 -5 -5588 14 -5671 20 -74 7 -97 12 -108 27
-10 14 -13 99 -14 403 -1 212 -2 456 -3 541 -1 85 -6 1568 -11 3295 -8 2936
-7 3142 9 3173 9 17 22 32 29 33 20 1 4241 7 9172 14 2525 4 4594 10 4599 15
4 5 -6 16 -23 24 -17 9 -31 20 -31 25 0 5 -13 14 -30 21 -44 18 -108 92 -114
132 -2 18 -9 74 -15 123 -18 163 -48 226 -158 332 -13 12 -23 26 -23 32 0 5
-9 12 -19 16 -11 3 -23 14 -26 24 -3 11 -15 21 -26 24 -11 3 -23 15 -26 26 -5
18 -43 32 -43 16 0 -8 32 -59 45 -70 6 -5 43 -49 83 -97 39 -47 85 -96 102
-108 35 -25 42 -73 13 -84 -22 -9 -13478 -5 -13492 3 -5 4 -14 19 -20 34 -15
39 -4 2754 11 2784 7 14 24 25 47 30 36 7 1464 9 3861 7 723 -1 1330 -1 1348
0 32 3 40 17 12 24 -44 11 -1439 20 -3230 20 l-2025 1 -32 -33z m727 -3111
c58 -8 130 -18 160 -24 30 -5 106 -10 169 -10 63 -1 112 -3 109 -6 -3 -3 -63
-7 -134 -10 -71 -2 -197 -10 -281 -19 -127 -13 -335 -18 -624 -16 -42 0 -61 5
-78 21 -30 28 -14 46 47 52 26 3 65 10 87 15 65 15 428 13 545 -3z"/>
<path d="M11910 22750 l-405 -5 710 -7 c391 -4 842 -12 1004 -18 185 -7 297
-8 303 -2 6 6 3 15 -7 26 -15 14 -72 16 -608 14 -326 -2 -774 -5 -997 -8z"/>
<path d="M13626 22701 c-6 -8 163 -31 234 -31 41 0 56 22 24 34 -24 9 -252 7
-258 -3z"/>
<path d="M13932 22654 c4 -3 55 -14 115 -24 182 -32 321 -61 568 -120 44 -11
104 -24 133 -31 28 -6 54 -15 57 -19 3 -5 29 -11 58 -15 28 -4 68 -14 87 -22
19 -8 61 -21 93 -29 32 -8 70 -20 85 -28 15 -7 46 -17 69 -21 24 -4 45 -11 48
-16 4 -5 32 -16 63 -25 31 -9 66 -22 77 -29 11 -7 46 -20 78 -29 32 -9 72 -26
90 -36 18 -11 38 -20 45 -20 7 0 55 -20 105 -45 51 -25 98 -45 104 -45 5 0 21
-8 34 -19 13 -10 38 -22 56 -25 18 -4 42 -15 55 -25 13 -10 40 -23 60 -30 20
-7 42 -18 48 -26 6 -7 24 -16 39 -20 16 -3 43 -17 62 -31 18 -13 38 -24 45
-24 6 0 22 -8 35 -18 13 -11 39 -24 57 -30 18 -6 45 -20 59 -32 14 -11 35 -20
46 -20 11 0 25 -7 31 -15 14 -18 83 -34 72 -17 -4 7 -16 12 -26 12 -10 0 -25
8 -32 19 -18 25 -105 91 -121 91 -12 0 -68 27 -217 105 -36 19 -70 35 -76 35
-6 0 -19 9 -29 20 -10 11 -25 20 -34 20 -9 0 -52 18 -96 41 -106 55 -133 68
-180 89 -22 10 -66 30 -98 44 -31 14 -68 26 -80 26 -13 0 -41 9 -62 20 -22 12
-60 24 -84 27 -24 3 -52 14 -62 24 -10 10 -39 21 -65 25 -25 3 -53 15 -62 25
-11 12 -36 21 -75 25 -35 4 -67 14 -77 24 -11 11 -41 19 -90 23 -51 4 -79 12
-94 25 -12 11 -44 22 -76 26 -30 4 -64 15 -75 25 -14 13 -43 20 -103 24 -58 5
-94 13 -117 27 -22 14 -50 20 -86 20 -64 0 -113 13 -135 34 -13 13 -43 16
-171 16 -86 0 -154 -3 -151 -6z"/>
<path d="M16530 21731 c0 -9 52 -22 59 -15 6 6 -1 11 -31 18 -16 3 -28 2 -28
-3z"/>
<path d="M16615 21681 c-4 -7 6 -14 25 -18 18 -3 34 -12 37 -20 6 -16 62 -47
70 -39 11 11 -7 36 -25 36 -11 0 -26 9 -33 20 -17 23 -64 36 -74 21z"/>
<path d="M16770 21580 c0 -5 10 -10 23 -10 18 0 19 2 7 10 -19 13 -30 13 -30
0z"/>
<path d="M16920 21480 c0 -5 5 -10 10 -10 6 0 10 5 10 10 0 6 -4 10 -10 10 -5
0 -10 -4 -10 -10z"/>
<path d="M17256 21241 c-7 -11 22 -23 36 -15 6 4 5 10 -3 15 -18 11 -26 11
-33 0z"/>
<path d="M17510 21040 c0 -5 5 -10 10 -10 6 0 10 5 10 10 0 6 -4 10 -10 10 -5
0 -10 -4 -10 -10z"/>
<path d="M17795 20790 c4 -6 11 -8 16 -5 14 9 11 15 -7 15 -8 0 -12 -5 -9 -10z"/>
<path d="M18045 20550 c3 -5 8 -10 11 -10 2 0 4 5 4 10 0 6 -5 10 -11 10 -5 0
-7 -4 -4 -10z"/>
<path d="M18095 20500 c3 -5 8 -10 11 -10 2 0 4 5 4 10 0 6 -5 10 -11 10 -5 0
-7 -4 -4 -10z"/>
<path d="M18286 20295 c4 -8 8 -15 10 -15 2 0 4 7 4 15 0 8 -4 15 -10 15 -5 0
-7 -7 -4 -15z"/>
<path d="M18920 19381 c0 -6 28 -55 63 -111 34 -55 69 -112 77 -127 8 -14 20
-24 25 -22 15 6 6 62 -12 76 -9 7 -24 30 -34 53 -10 22 -22 40 -28 40 -5 0
-13 10 -17 22 -4 13 -20 35 -36 50 -33 30 -38 33 -38 19z"/>
<path d="M12560 19283 c-58 -2 -394 -4 -747 -5 -646 -3 -687 -5 -649 -37 38
-32 159 -35 1306 -36 1178 0 1435 7 1497 38 16 9 46 18 66 22 21 4 36 10 33
13 -5 5 -1318 9 -1506 5z"/>
<path d="M10960 19251 c-13 -25 -13 -43 1 -78 l11 -28 15 49 c14 49 12 76 -6
76 -6 0 -15 -9 -21 -19z"/>
<path d="M14180 19251 c0 -22 25 -39 38 -27 8 8 -10 38 -26 44 -7 2 -12 -6
-12 -17z"/>
<path d="M19100 19101 c0 -16 23 -55 38 -64 6 -4 12 -16 13 -25 0 -9 18 -48
39 -87 22 -38 49 -88 61 -110 12 -22 24 -42 28 -45 3 -3 19 -32 35 -65 17 -33
42 -78 57 -100 15 -22 30 -54 34 -72 3 -17 13 -37 21 -44 8 -6 14 -15 14 -20
0 -8 42 -103 97 -217 14 -29 29 -55 34 -57 4 -3 15 -27 24 -54 8 -26 24 -65
35 -87 11 -21 20 -44 20 -52 0 -7 9 -31 20 -53 51 -100 58 -116 65 -149 7 -32
53 -158 75 -205 14 -28 55 -158 74 -231 9 -34 23 -74 31 -90 8 -16 15 -40 15
-54 0 -14 11 -65 24 -115 57 -214 112 -471 130 -620 7 -49 17 -99 23 -110 6
-11 19 -98 28 -194 14 -157 25 -201 48 -201 10 0 6 110 -8 182 -8 44 -15 121
-15 170 0 71 -4 97 -19 122 -14 23 -20 57 -23 137 -4 86 -8 111 -25 135 -16
22 -22 50 -26 112 -4 59 -10 89 -22 102 -11 13 -20 47 -25 99 -5 44 -15 90
-23 103 -8 13 -17 45 -21 72 -3 27 -13 63 -22 80 -8 17 -22 67 -30 111 -9 44
-19 85 -24 90 -4 6 -16 35 -26 65 -10 30 -23 61 -30 68 -7 7 -16 33 -20 57 -4
28 -13 49 -24 55 -12 6 -20 27 -25 59 -4 28 -15 57 -25 66 -10 9 -21 36 -24
60 -4 24 -13 49 -21 55 -8 6 -21 35 -29 65 -9 29 -22 58 -30 64 -8 6 -17 31
-20 56 -4 24 -13 48 -21 55 -7 6 -16 29 -20 50 -4 22 -15 50 -24 62 -10 13
-22 34 -26 48 -4 14 -15 34 -25 45 -10 11 -25 36 -34 55 -30 63 -58 115 -71
130 -7 8 -18 32 -25 53 -6 21 -18 41 -26 44 -8 3 -14 11 -14 17 0 7 -11 27
-24 45 -13 18 -27 48 -30 67 -4 19 -11 34 -17 34 -6 0 -19 20 -30 44 -10 24
-25 46 -33 49 -8 3 -17 19 -21 36 -3 16 -14 33 -24 36 -9 3 -21 19 -26 37 -10
30 -35 52 -35 29z"/>
<path d="M14195 18851 c-4 -8 -10 -3217 -13 -7132 l-5 -7119 38 -37 37 -36
562 7 c308 3 581 10 606 15 62 13 3343 21 3940 11 146 -3 416 0 602 7 431 14
411 3 413 228 1 301 -16 3775 -19 3800 -2 17 -7 201 -10 410 -7 409 -13 694
-22 980 -5 191 -20 983 -34 1910 -5 308 -12 1087 -15 1730 -7 1352 -15 1699
-39 1723 -15 15 -16 15 -17 -3 0 -11 -1 -2243 -3 -4960 -2 -4411 -4 -4963 -18
-5157 -14 -189 -14 -228 -2 -310 17 -112 18 -204 3 -246 -21 -61 418 -54
-4499 -76 -1150 -5 -1430 -4 -1449 6 l-25 13 -3 7101 c-1 3943 -6 7111 -11
7124 -6 17 -11 20 -17 11z"/>
<path d="M20178 15893 c-4 -87 9 -344 20 -403 8 -40 10 -32 17 75 7 116 2 311
-11 368 -11 48 -23 29 -26 -40z"/>
</g>
</svg>
